<svg width="345" height="475" viewBox="0 0 345 475" fill="none" xmlns="http://www.w3.org/2000/svg">
<path d="M172.5 7.71858e-06C99.4475 4.52535e-06 40.5965 22.6872 5.82939e-05 62.7134L36.9511 100.33C61.5828 76.0525 97.6313 58.6129 146.16 53.9933L146.16 421.005C97.6429 416.382 61.6042 398.929 36.9671 374.617L4.30165e-05 412.219C40.5965 452.279 99.4475 475 172.5 475C245.553 475 304.403 452.313 345 412.287L308.033 374.685C283.401 398.963 247.365 416.391 198.84 421.008L198.84 53.9946C247.347 58.6171 283.381 76.0636 308.017 100.367L345 62.7815C304.403 22.7213 245.553 1.09118e-05 172.5 7.71858e-06Z" fill="#3C5DF2"/>
</svg>
